<?xml version="1.0" encoding="UTF-8"?>
<svg enable-background="new 0 0 1554.103 1655.549" version="1.1" viewBox="0 0 1554.103 1655.549" xmlns="http://www.w3.org/2000/svg">
 <g fill="#040000">
  <path d="m880.9 31.827c8.586-6.366 22.543-3.462 32.296-2.933 13.729 0.745 27.282 0.833 39.921 6.902 5.579 2.679 8.725 6.565 13.728 9.668 6.16 3.818 7.658 3.593 15.733 4.294 21.052 1.826 42.866 10.63 61.015 21.09 8.612 4.964 17.765 20.161 27.134 21.869 10.129 1.849 26.239-12.491 35.777-16.144 56.509-21.641 108.36-4.681 141.87 45.499 11.681 17.488 19.163 37.681 18.811 58.89-0.185 11.178-7.517 24.502-6.628 34.981 1.511 17.809 22.119 12.416 34.375 14.285 12.84 1.959 23.307 6.852 31.873 17.132 15.454 18.551 18.037 50.135 19.737 73.401 1.725 23.628 4.294 47.72 22.732 63.427 19.993 17.032 39.678 30.853 53.39 53.645 21.538 35.8 22.944 68.116 21.272 108.77-0.763 18.546-5.525 35.896-9.857 53.824-3.518 14.558-2.109 12.441 9.075 21.206 11.109 8.705 17.169 17.616 22.679 30.319 5.942 13.699 9.702 24.006 9.585 38.794-0.06 7.56-0.357 15.126-0.763 22.676-0.265 4.985-0.597 9.965-0.996 14.94 3.141 1.773 6.257 3.591 9.347 5.452 9.391 12.082 18.277 22.442 24.838 36.2 7.398 15.517 14.672 36.458 17.254 53.971 4.993 33.863-7.967 49.498-35.738 64.766 23.528 28.487 42.667 66.538 37.954 104.65-2.736 22.131-9.717 40.395-24.388 57.226-7.405 8.494-15.051 16.462-23.306 24.12-6.185 5.739-23.045 17.783-26.022 26.096-3.102 8.659 4.257 24.176 2.914 34.407-1.087 8.288-6.771 16.356-7.355 24.289-0.56 7.604 5.909 19.081 7.343 29.514 1.475 10.733 4.447 20.909 5.659 31.595 4.065 35.849-5.751 62.123-25.473 91.5-8.981 13.378-16.349 27.445-26.732 39.748-15.417 18.268-28.265 27.033-50.456 34.831-5.758 2.023-14.963 3.516-20.157 6.262-14.816 7.832-10.621 40.288-18.413 56.459-8.36 17.349-13.638 36.369-27.07 50.892-10.228 11.06-23.395 14.855-36.284 21.771-27.002 14.488-55.351 17.727-85.77 14.05-17.746-2.145-48.335-15.154-62.399-7.176-5.936 3.367-12.499 13.241-17.777 18.06-7.605 6.944-15.634 13.639-21.588 21.979-9.395 13.159-16.697 20.809-32.313 29.021-19.197 10.096-44.709 22.968-66.108 26.684-21.415 3.719-48.811 4.664-69.855-0.737-5.013-1.286-9.509-3.01-14.117-5.456-7.438-3.95-12.737-13.847-19.193-17.031-0.754-0.371-8.198 2.194-10.607 1.407-6.094-1.991-11.333-4.85-16.928-7.972-9.911-5.531-19.208-11.991-26.215-21.195-15.992-21.003-18.357-46.07-15.142-71.682 0.498-3.967 1.607-7.849 2.17-11.839 0.618-4.387-0.485-7.004 1.15-11.644 0.662-1.877 6.465-5.722 6.763-7.346 2.07-11.267-3.715-28.997-5.448-40.166-4.159-26.802-16.345-51.467-17.13-78.78-0.362-12.577-0.281-27.762 4.455-39.641 5.05-12.665 21.104-26.688 19.859-40.579-1.136-12.671-12.472-27.066-16.914-39.421-8.942-24.87-4.945-52.574-4.473-78.462 0.429-23.531 3.761-38.067 9.075-60.034 3.809-15.746 7.838-29.267 13.336-44.364 4.626-12.701 4.177-13.426-3.808-24.442-3.773-5.206-7.526-11.215-9.082-17.534-7.054-28.647 10.766-70.177 32.176-89.641-9.503-10.264-17.181-19.044-23.565-32.176-10.083-20.742-5.522-47.146-5.412-70.179 0.148-30.859-1.001-62.305 1.704-93.096 0.651-7.405 2.288-13.739 4.116-20.841 2.521-9.793 5.238-18.883 9.354-28.263 4.995-11.381 9.295-22.911 14.158-34.336 4.5-10.576 11.237-21.407 15.1-32.013-27.491-6.662-43.957-55.247-44.725-80.281-0.795-25.934-1.682-55.02 1.855-80.78 0.8-5.828 2.805-11.454 4.429-17.09 2.466-8.553 4.249-17.013 6.086-25.709 2.292-10.848 3.765-10.786-2.041-17.198-4.387-4.842-7.875-2.637-10.333-9.937-1.79-5.315 0.558-17.48 2.193-22.932 3.683-12.29 12.382-19.084 22.42-26.465-11.585-3.267-28.458-26.352-33.878-36.534-7.99-15.006-5.984-33.979 0.825-49.024 5.203-11.496 12.553-22.154 18.856-33.072 3.198-5.538 9.41-12.688 11.328-18.639 2.856-8.867-3.219-15.839-7.11-25.68-8.658-21.889-8.239-57.093-1.371-79.073 2.981-9.54 9.903-20.165 17.643-26.445 14.192-11.508 34.002-15.783 47.575-26.575m19.842 10.722c-27.41 9.575-54.624 15.914-66.064 45.744-10.137 26.432-9.745 60.812 3.351 86.293 11.373-10.13 23.419-19.044 35.852-27.789 5.104-3.591 19.285-18.366 25.306-18.471 13.526-0.235 3.851 16.85-3.019 22.446-8.857 7.212-20.819 11.381-30.205 18.153-16.777 12.104-27.157 26.107-37.883 43.098-17.208 27.261-30.572 47.588-10.89 78.155 12.286 19.08 20.564 30.269 43.455 18.677 13.626-6.9 27.736-12.485 42.694-16.222 16.838-4.206 33.755-2.357 50.7 0.573 15.085 2.607 29.146 6.749 43.496 11.377 7.419 2.393 34.602 5.705 33.797 17.576-27.068 4.411-53.321-13.802-79.449-18.09-19.408-3.185-38.909-1.166-57.644 4.623-18.348 5.669-65.887 21.29-68.216 43.958-0.976 9.5 6.782 21.697 7.045 32.105 0.239 9.471-0.327 22.048-3.24 31.146-4.943 15.431-11.267 27.731-12.554 44.512-3.234 42.147-7.501 108.12 38.24 131.65 3.247-7.178 16.376-19.966 25.368-17.394-0.876 17.674-21.364 38.575-28.969 54.131-9.446 19.322-17.582 39.866-25.431 59.903-16.747 42.757-11.216 98.735-11.188 143.93 0.041 63.778 46.92 94.808 101.83 115.5 10.631 4.005 20.052 7.463 29.118 13.964 7.017 5.031 14.508 12.783 1.598 14.041-5.713 0.557-13.109-6.292-18.041-8.297-6.574-2.674-13.009-3.975-19.846-6.243-13.74-4.559-26.381-9.839-39.093-16.869-5.569-3.08-11.424-7.193-17.402-9.422-8.595-3.204-4.708-4.899-12.925-0.331-13.371 7.431-22.656 33.282-23.862 47.475-1.11 13.066 4.744 24.651 8.666 36.944 7.646-8.134 9.283-19.279 21.389-22.057 3.482-0.799 17.304-1.401 17.313 4.909 6e-3 4.443-20.189 20.292-23.501 25.17-5.329 7.849-8.361 16.158-12.457 24.667-11.368 23.619-20.07 53.372-23.818 79.767-6.458 45.471 0.27 86.137 17.519 128.05 6.907 16.782 14.336 34.204 19.424 51.526 2.474 8.422 3.913 20.851-8.583 15.137-6.316-2.888-11.682-18.675-13.084-24.602-13.857 12.769-21.011 26.937-17.104 46.993 5.502 28.246 41.096 46.297 66.965 48.652 27.102 2.466 62.304-1.023 84.945-17.728 11.662-8.604 21.537-22.118 26.241-35.802 4.832-14.059-1.569-29.968 14.717-33.901 16.877-4.077 38.56 3.156 52.073-11.106 14.983-15.814 12.665-49.462 6-68.122-2.357-6.599-16.085-20.422-14.484-27.381 2.977-12.936 13.147-1.663 17.943 2.908 15.39 14.66 27.059 26.917 46.529 36.512 43.057 21.22 90.828 18.58 136.34 5.275 20.84-6.093 42.295-14.934 55.582-32.861 20.037-27.033 36.575-66.384 42.546-99.423 2.145-11.869 1.736-23.161-0.094-35.06-0.695-4.519-8.156-19.429-7.778-21.502 1.532-8.415 19.189-10.487 25.609-12.652 16.91-5.7 33.185-13.491 44.568-27.748 6.347-7.949 10.725-17.243 13.525-26.988 4.607-16.035-9.965-22.957-13.563-38.833-2.464-10.87-4.095-33.619 11.808-23.918 12.829 7.825 11.266 25.936 27.363 31.719 13.272 4.768 31.179-13.132 38.674-8.924 5.106 2.865 5.791 15.626 4.293 20.046-4.066 11.992-17.733 12.838-28.539 13.518-8.731 0.549-19.679-1.406-23.989 4.189-3.462 4.496-3.726 17.908-6.526 24.054-12.362 27.133-44.211 49.907-73.932 50.954 16.904 41.302-3.618 83.124-20.829 120.53-13.215 28.724-29.06 57.238-59.002 70.354-29.971 13.129-65.467 15.675-97.952 16.489-40.509 1.016-65.041-7.446-98.84-30.531 0.942 24.662 2.932 46.621-10.771 68.802-15.299 24.764-33.097 24.113-59.27 18.588-2.29 39.351-37.791 75.726-76.46 81.475-43.625 6.486-74.017 1.117-114.07-13.018 2.095 21.696 7.427 25.126 22.895 39.158 14.358 13.025 30.954 18.958 46.751 29.251 13.246 8.631 14.317 20.043-3.95 14.138-20.768-6.714-35.784-19.252-54.082-31.249-1.406 25.853-12.486 50.251-9.193 76.36 3.958 31.381 23.542 45.675 47.45 63.222-0.43-9.285-0.229-20.597 7.418-27.261 5.269 6.273 6.432 14.577 10.585 21.451 6.586 10.903 16.667 16.721 28.496 20.907 33.795 11.958 66.729 3.638 99.015-8.385 39.782-14.814 58.755-52.073 94.657-72.849-12.817-7.431-23.808-12.529-35.754-22.104-13.164-10.552-30.692-17-42.343-28.805-12.306 18.589-39.505 36.077-62.184 36.745-21.389 0.63-13.631-9.499 0.229-15.906 16.409-7.586 33.259-13.876 45.643-27.767 6.813-7.641 11.609-16.71 14.352-26.553 3.659-13.132 2.213-38.615 14.386-46.928 11.084 14.011 4.403 31.412 0.136 46.175-2.722 9.419-3.003 11.561 1.808 18.813 1.197 1.805 12.604 13.134 14.767 13.427 5.396 0.728 26.874-14.838 31.977-19.458 5.219-4.723 10.514-11.946 12.796-18.708 8.645-25.61-1.788-44.363-14.52-65.477-4.005-6.642-13.091-21.724 2.116-21.599 7.886 0.064 18.714 13.93 24.82 18.037 8.818 5.93 18.08 9.067 28.458 11.295 5.545 1.19 11.517 2.506 17.218 2.547 3.688 0.027 19.084-4.977 21.617-2.975 5.266 4.162-7.541 17.123-12.142 19.297-6.216 2.936-16.204 2.099-22.926 1.618-3.511 0.25-7.01 0.071-10.494-0.539-6.332-4.436-9.415-2.546-9.251 5.669-9.685 15.685-6.718 36.127-17.2 52.172-9.64 14.757-21.167 26.539-39.599 29.499 46.469 43.151 125.06 51.951 182.07 28.512 22.798-9.374 35.796-22.46 47.687-43.906 12.974-23.402 14.52-46.12 22-71.295-22.877 0.131-39.292-0.772-61.513-6.336 1.957 27.808-6.861 49.995-34.537 60.816-9.495 3.713-75.113 12.079-67.67-9.153 2.886-8.23 27.229-5.454 32.994-5.515 15.281-0.164 28.5-1.86 40.41-12.611 9.964-8.994 20.289-26.762 11.558-38.291-7.375-9.738-24.322-19.081-33.754-27.64-5.654-5.13-18.852-15.801-20.815-24.006-5.885-24.598 21.109 2.348 25.976 7.288 16.806 17.059 39.328 33.218 63.247 37.674 51.974 9.681 104.84-2.566 135.9-47.694 31.86-46.292 48.979-91.714 26.27-145.72-8.522 5.486-79.575 23.552-79.17 0.983 14.156-5.109 30.04-0.483 44.567-5.085 17.203-5.45 30.429-20.489 34.831-37.895 4.036-15.956-2.025-26.18-3.353-41.46-1.297-14.906 1.653-14.346 14.997-19.606 44.608-17.58 71.839-73.271 61.489-119.08-2.451-10.844-6.016-23.531-10.798-33.431-2.882-5.967-7.025-11.454-10.693-16.929-6.314-9.426-5.262-11.404-14.147-11.041-13.031 0.533-26.185 10.418-39.212 11.941-12.945 1.514-19.324-2.509-29.356 6.16-39.556 34.18-51.983 90.181-111.74 97.489-9.241 1.13-46.997 1.915-21.938-11.629 21.369-11.549 45.703-8.531 66.037-25.129 12.059-9.843 19.551-23.193 28.084-35.949 4.636-6.929 10.631-14.122 13.823-21.89 2.546-6.197 0.831-16.992 5.359-21.573 8.487-8.585 29.706 0.914 39.9 0.078 15.067-1.236 32.532-10.674 45.795-18.005 16.624-9.188 35.986-25.835 39.058-45.405 3.88-24.71-14.824-67.958-34.609-82.844-10.934-8.227-10.468-2.71-18.09 6.975-4.186 5.32-8.506 11.119-13.814 15.386-2.783 2.239-13.073 5.198-14.38 6.953-3.082 4.14-4.303 24.282-6.981 30.874-3.23 7.952-7.024 12.57-11.623 19.306-6.686 9.792-13.81 22.558-23.673 29.6-7.858 5.611-27.173 9.912-23.638-3.655 2.62-10.059 22.803-19.054 29.694-27.48 19.428-23.749 24.337-56.429 15.524-85.073-5.247-17.051-12.875-34.831-24.609-48.473-4.845-5.633-35.437-28.654-6.885-24.208 12.838 1.999 26.377 24.076 32.083 34.05 9.572 16.728 14.619 35.231 19.371 53.777 24.169-12.355 33.698-44.879 31.915-70.311-1.146-16.355-7.115-35.607-17.784-48.077-2.356-2.753-14.805-15.947-19.356-15.359-4.762 0.615-10.043 11.477-13.903 14.829-3.966 3.444-12.707 10.639-18.004 8.073-10.206-4.945 2.213-12.251 5.334-15.422 12.392-12.594 18.091-28.133 24.065-44.525 10.654-29.234 13.11-62.083 8.759-92.771-4.713-33.248-20.553-60.605-45.618-81.998-12.372-10.559-26.961-32.067-42.585-26.996-9.061 2.942-32.071 20.466-32.151 2.946-9e-3 -1.939 5.891-15.838 7.321-19.071 3.572-8.074 3.75-3.848 10.689-8.853 9.621-6.941 6.704-10.988 6.065-24.766-0.495-10.672 0.442-21.483-0.579-32.124-3.229-33.665-17.51-56.411-50.814-63.192-4.269-0.869-22.894-5.668-25.66-2.176-1.22 1.539 6.637 19.455 7.619 24.029 1.588 7.4 1.969 13.992 1.974 21.813 4e-3 6.31 3.638 24.554-3.812 27.205-8.836 3.144-8.55-6.939-9.055-12.294-1.704-18.078-2.745-31.792-9.806-49.434-22.536 14.222-23.977-2.376-28.848-19.514-3.064-10.784-2.716-10.857-13.559-16.39-4.882-2.492-10.781-6.017-15.798-7.886-4.343-1.619-25.339-2.831-25.732-10.269-1.154-21.841 77.885 20.609 84.111 25.334 8.661-24.931 16.801-47.011 5.176-72.134-10.734-23.199-32.321-52.87-56.194-63.516-20.203-9.007-43.714-8.36-64.303-1.837-9.065 2.872-18.973 6.854-27.403 11.11-7.603 3.839-12.176 9.37-20.297 11.798 0.879 3.348 5.095 12.866 6.988 15.649 4.26 6.269 0.036 3.882 8.651 6.93 7.912 2.8 21.638-2.231 28.682 2.017 13.448 8.108-11.532 12.15-20.229 11.884-11.297-0.347-14.245-5.315-17.191 6.583-1.339 5.406-0.999 11.882-1.837 17.508-1.395 9.372 3.222 44.359-2.56 49.946-8.069 7.798-15.475-4.071-16.471-10.912-1.491-10.245 2.5-26.533 3.768-36.95 2.433-19.957 6.179-37.613-3.899-56.636-17.053-32.191-52.843-45.993-86.419-52.716 6.689 11.001 11.223 22.011 14.687 34.546 1.548 5.604 0.874 16.868 4.319 21.706 2.415 3.392 9.825 4.523 12.989 8.309 11.137 13.324 7.868 43.264-4.293 54.172-14.263 12.794-35.322 9.085-52.539 6.181-3.808-0.642-19.641-1.159-20.109-5.64-1.27-12.159 23.739-3.518 26.7-3.334 15.821 0.98 40.46-13.176 32.631-33.148-1.596-4.071-5.269-3.082-6.777-5.878-4.02-7.445-4.198-12.098-5.116-21.222-3.967-39.51-32.202-89.527-80.738-75.264-4.378 1.529 2.231-0.654 0 0z"/>
  <path d="m1070.6 241.29c19.301-7.173 47.871 26.599 52.292 42.316 4.095 14.562 4.239 36.456 1.475 51.236 12.608-1.067 24.872-1.896 36.987-5.432 11.035-3.221 17.845-8.103 14.001 6.719-3.443 13.274-15.203 15.937-27.406 17.307-8.079 0.906-18.697-2.944-26.068-1.152-7.778 1.892-9.788 8.138-17.308 13.887-16.661 12.735-34.61 12.237-54.244 13.626 2.334 6.66 16.587 54.203-3.281 36.146-7.768-7.06-8.901-22.496-13.57-31.705-2.492-4.913-27.166-29.657-18.13-36.464 6.088-4.586 24.617 19.321 31.104 19.734 11.615 0.741 38.379-13.013 47.369-20.12 17.494-13.83 16.139-36.765 10.743-56.432-6.559-23.908-23.533-29.806-33.964-49.666 2.878-1.071 2.275 4.331 0 0z"/>
  <path d="m909.72 349.87c-1.05-16.531 22.949 8.871 24.737 11.491 6.199 9.082 20.002 29.555 2.206 31.408 30.417 0 59.239 9.508 80.109 32.359 27.183 29.765 37.014 73.163 67.409 100.25 24.951 22.237 45.675 28.623 77.296 18.243 20.529-6.739 26.815-19.134 42.581-30.588 38.294 48.883-69.861 52.506-93.553 53.493 16.933 22.647-4.023 61.043-20.835 77.668 22.724 16.555 27.363 47.957 12.914 72.035-18.176 30.289-58.499 39.016-91.093 33.569-0.361 15.54 0.827 28.77-3.367 43.436 45.317 8.002 82.034 49.417 83.167 95.364 11.871-2.715 22.613-7.119 35.012-7.003 26.265 0.244 53.212 12.381 76.8 22.423 5.682-24.501 22.373-42.75 46.237-49.995 10.997-3.338 41.544-10.934 50.027 0.971-15.224 7.342-32.379 4.62-47.688 12.039-12.961 6.28-20.611 16.689-26.582 29.449-3.23 6.902-5.666 21.129-12.24 25.831-9.989 7.146-19.51-6.609-28.346-11.813-14.029-8.262-33.271-14.997-49.643-16.101-8.803-0.593-38.69 1.461-43.913 7.436-3.805 4.352-1.168 21.812-2.252 28.451-1.039 6.362-2.863 11.885-4.4 18.024-1.367 5.464-1.434 12.155-4.658 16.967-3.267 4.877-18.469 13.853-23.579 5.525-2.738-4.461 12.115-24.848 13.667-29.283 5.817-16.626 9.65-40.564 6.795-58.035-4.536-27.754-24.898-58.468-50.431-70.878-27.943-13.583-46.779-7.803-63.677 17.026-4.219 6.199-10.12 18.221-18.603 18.597-9.63 0.427-22.957-14.751-32.721-17.727-22.908-6.981-34.953 4.043-47.323 19.945-10.214 13.129-31.146 26.467-22.791-2.197 13.656-46.852 68.914-33.077 101.14-21.625 10.31-26.177 27.225-36.2 54.131-35.462-1.041-13.788 2.647-26.712-1.069-40.253-3.934-14.337-11.552-22.36-22.103-31.978-4.809-4.383-16.331-12.391-8.948-18.108 3.786-2.932 8.689 0.15 12.314 1.325 9.535 3.09 17.461 10.94 23.09 18.879 3.955 5.578 6.184 12.871 12.138 15.377 4.586 1.93 13.961 0.311 18.826-0.125 12.521-1.121 26.034-4.955 37.095-11.205 9.187-5.19 14.991-11.803 19.257-21.415 8.696-19.596 0.118-28.701-8.836-44.532-7.843-13.869-0.434-19.179 7.327-30.959 7.438-11.291 13.001-24.627 12.371-38.276-0.779-16.886-3.025-31.93-15.195-45.136-14.512-15.747-28.336-27.494-38.203-47.282-13.17-26.414-26.578-56.143-50.528-74.864-21.383-16.716-56.102-20.139-82.541-18.764-5.624 0.293-33.59 5.423-23.848-7.599 6.423-8.585 31.282-4.156 39.366-3.814-3.186-6.341-3.243-13.991-5.894-20.589-3.097-7.711-9.273-13.66-11.156-21.978-0.272-4.297 2.112 9.33 0 0z"/>
  <path d="m1210.1 350.88c13.33 20.183 15.984 58.346 14.138 81.536-0.461 5.79-3.512 12.359-3.548 17.877-0.049 7.35 3.071 12.751 7.96 19.598 9.354 13.104 21.592 24.099 31.731 36.609 19.186-31.705 29.345-53.845 19.766-92.14-2.502-10.003-5.665-18.012-12.599-25.595-5.507-6.024-15.332-10.415-14.959-19.589 15.886 0.076 33.673 16.969 41.764 30.283 7.885 12.971 4.756 33.304 5.812 47.66 14.959-0.429 26.836 0.28 41.251 4.077 8.681 2.288 37.18 6.591 35.253 19.261-2.837 18.642-20.052 3.651-26.214-0.194-13.617-8.497-24.208-8.481-39.567-7.221-14.675 1.204-9.246 0.815-12.717 13.459-1.725 6.283-6.119 11.853-9.218 17.48-3.094 5.617-5.868 11.287-9.978 16.259-7.306 8.843-8.268 4.913-5.395 14.036 3.452 10.96 17.435 20.539 23.162 30.788 7.904 14.146 14.307 31.172 18.286 46.919 22.499-27.655 48.423-41.463 84.687-30.455-0.701 12.136-24.3 9.486-31.4 11.138-6.514 1.516-14.354 4.249-19.945 8.185-3.623 2.551-6.654 6.354-9.876 9.387-4.337 4.081-17.67 12.365-19.304 17.537-1.488 4.705 1.935 13.141 2.457 17.804 3.605 32.149-0.458 82.495-23.383 108.2 15.991 2.052 34.897 13.665 45.382 25.681 4.407 5.052 19.087 33.154 9.15 37.123-11.204 4.475-27.269-32.738-35.632-38.695-4.471-3.185-22.552-14.449-27.79-12.878-5.756 1.725-13.233 15.771-17.535 20.393-12.823 13.779-28.355 26.039-45.539 33.926-5.778 2.651-26.799 12.418-33.1 6.018-7.628-7.748 12.095-14.864 17.054-16.958 56.495-23.855 99.367-80.453 98.584-143.4-0.734-58.988-34.512-127.64-83.018-162.94-10.621-7.728-31.425-10.926-31.416-24.636 9e-3 -14.269 14.26-29.197 15.705-44.138 1.091-11.299-1.076-24.065-4.251-34.823-2.906-9.843-11.378-32.622 4.242-37.569 6.145 9.302-4.035 1.278 0 0z"/>
  <path d="m916.73 476.64c15.008-1.574 30.757 16.302 41.821 23.649 7.97 5.293 17.122 11.078 26.666 12.823 10.517 1.922 18.263-2.288 28.516-2.921 5.965 17.974-6.299 25.297-20.325 26.532-12.984 1.144-19.437-3.627-27.829 7.858-5.622 7.694-8.787 17.087-11.142 26.198-5.175 20.025-4.346 34.891 1.571 54.438 1.259 4.159 2.167 8.469 3.393 12.597 2.76 9.291-0.873 6.947 6.727 11.526 8.31 5.007 16.905-0.711 22.192 10.88-1.985 5.374-55.605-4.061-64.844-1.973-10.82 2.444-20.935 9.001-29.841 15.353-5.835 4.162-17.697 18.873-25.264 17.913-21.276-2.7 19.229-33.248 26.142-36.88 17.558-9.225 33.756-7.876 52.61-8.585-16.132-26.997-18.616-61.352-4.961-91.405 2.428-5.342 15.992-20.066 15.483-25.531-0.34-3.647-10.655-12.783-13.083-15.547-5.095-5.801-9.883-13.502-15.857-18.001-3.856-2.901-33.237-16.274-11.975-18.924 3.559-0.374-6.597 0.821 0 0z"/>
  <path d="m997.26 983.27c-4.03-15.266 18.484-1.069 21.357 3.955 3.961 6.926 4.8 12.993 5.306 20.927 1.254 19.656 0.357 34.941-12.783 49.646 19.939 4.826 46.101-2.548 64.946-8.739 11.802-3.876 20.805-8.838 29.775-17.551 6.577-6.388 12.487-16.797 22.479-18.046 6.972 22.474-11.386 30.993-26.485 41.167-25.067 16.891-50.494 17.574-80.288 18.859-11.155 0.481-23.318 1.689-34.101-1.883-1.967-0.652-3.464-2.239-5.342-2.987-4.32-1.722-8.288-4.402-13.001-5.151-9.738-1.547-13.991 1.835-23.247 6.071-12.034 5.507-38.837 18.338-52.745 14.506-26.96-7.429 24.112-17.046 28.326-18.535 10.102-3.57 11.564-9.431 19.324-15.282 10.885-8.209 23.233-5.979 35.85-4.452 9.512 1.15 12.581 3.592 19.736-4.103 4.642-4.993 7.031-13.647 8.239-20.145 2.753-14.793-4.586-24.209-7.346-38.257-0.9-3.412 0.921 4.68 0 0z"/>
  <path d="m1213.7 1007.2c1.417-2.252 2.833-4.502 4.251-6.754 18.687 14.544 19.306 42.388 24.582 63.449 5.099 20.351 10.124 45.299-3.56 62.668-13.625 17.295-34.748 22.931-56.002 23.586-11.098 0.341-21.401-0.089-31.68-4.827-2.078-0.958-5.456-3.234-7.598-3.72-2.573-4.918-5.161-5.638-7.763-2.159-2.588 2.058-5.14 4.161-7.654 6.31-48.179 30.398-113.88 33.451-166.85 18.896 2.384 20.168 6.085 43.961-11.351 59.153-7.079 6.167-31.957 12.687-40.641 6.936-11.618-7.693 5.199-14.704 12.629-19.335 10.912-6.802 22.601-10.485 25.672-24.101 1.57-6.962 0.566-27.632-2.66-31.842-1.422-1.856-73.764-37.975-47.296-48.219 7.613-2.946 19.265 12.991 24.416 17.412 9.811 8.423 19.957 14.72 31.936 19.678 29.911 12.377 56.55 16.459 88.44 12.063 25.736-3.548 51.422-10.925 72.071-27.26 4.668-3.692 9.536-10.874 14.814-13.453 8.169-3.991 6.224-1.113 14.096 3.542 27.554 16.294 76.825 16.395 87.087-20.641 8.339-30.093-16.729-61.536-16.937-91.382 0.873-2.548 0.054 7.838 0 0z"/>
 </g>
 <g fill="#040000">
  <path d="m673.21 31.827c13.572 10.792 33.383 15.067 47.574 26.575 7.74 6.28 14.662 16.905 17.643 26.445 6.868 21.98 7.287 57.184-1.371 79.073-3.891 9.84-9.966 16.813-7.11 25.68 1.918 5.952 8.13 13.101 11.328 18.639 6.303 10.917 13.653 21.575 18.856 33.072 6.809 15.045 8.816 34.018 0.826 49.024-5.42 10.182-22.293 33.267-33.878 36.534 10.038 7.382 18.737 14.176 22.42 26.465 1.634 5.452 3.982 17.617 2.193 22.932-2.459 7.3-5.947 5.094-10.333 9.937-5.807 6.411-4.333 6.35-2.041 17.198 1.837 8.696 3.62 17.157 6.087 25.709 1.624 5.636 3.629 11.261 4.429 17.09 3.537 25.761 2.65 54.846 1.855 80.78-0.768 25.034-17.234 73.619-44.725 80.281 3.863 10.605 10.6 21.437 15.1 32.013 4.863 11.426 9.162 22.956 14.158 34.336 4.116 9.379 6.832 18.47 9.354 28.263 1.828 7.102 3.465 13.436 4.116 20.841 2.705 30.791 1.556 62.237 1.704 93.096 0.109 23.032 4.67 49.436-5.412 70.179-6.384 13.132-14.063 21.912-23.565 32.176 21.41 19.464 39.23 60.994 32.176 89.641-1.556 6.319-5.308 12.328-9.081 17.534-7.985 11.016-8.433 11.742-3.808 24.442 5.499 15.097 9.527 28.618 13.336 44.364 5.314 21.967 8.646 36.503 9.075 60.034 0.472 25.888 4.469 53.592-4.473 78.462-4.442 12.355-15.778 26.75-16.914 39.421-1.245 13.892 14.809 27.915 19.859 40.579 4.736 11.879 4.817 27.064 4.455 39.641-0.784 27.313-12.97 51.978-17.13 78.78-1.733 11.169-7.518 28.899-5.448 40.166 0.298 1.624 6.101 5.469 6.763 7.346 1.635 4.64 0.533 7.257 1.15 11.644 0.562 3.99 1.672 7.872 2.17 11.839 3.215 25.612 0.85 50.679-15.142 71.682-7.007 9.205-16.304 15.665-26.215 21.195-5.595 3.122-10.834 5.981-16.928 7.972-2.408 0.787-9.853-1.778-10.607-1.407-6.456 3.184-11.754 13.081-19.193 17.031-4.608 2.446-9.103 4.17-14.117 5.456-21.044 5.401-48.44 4.456-69.855 0.737-21.398-3.715-46.911-16.588-66.108-26.684-15.616-8.212-22.918-15.862-32.313-29.021-5.954-8.339-13.983-15.034-21.588-21.979-5.278-4.819-11.84-14.693-17.777-18.06-14.064-7.978-44.653 5.031-62.399 7.176-30.419 3.677-58.768 0.438-85.77-14.05-12.889-6.916-26.056-10.711-36.284-21.771-13.432-14.524-18.71-33.543-27.07-50.892-7.793-16.171-3.597-48.626-18.413-56.459-5.194-2.746-14.399-4.239-20.157-6.262-22.19-7.798-35.039-16.562-50.456-34.831-10.383-12.303-17.751-26.369-26.732-39.748-19.722-29.377-29.538-55.651-25.473-91.5 1.212-10.686 4.184-20.863 5.659-31.595 1.434-10.433 7.903-21.91 7.343-29.514-0.584-7.934-6.267-16.001-7.355-24.289-1.343-10.23 6.016-25.748 2.914-34.407-2.977-8.313-19.837-20.357-26.022-26.096-8.255-7.658-15.901-15.626-23.306-24.12-14.671-16.832-21.652-35.095-24.388-57.226-4.713-38.109 14.426-76.16 37.954-104.65-27.771-15.268-40.731-30.903-35.738-64.766 2.582-17.512 9.856-38.453 17.254-53.971 6.56-13.758 15.447-24.119 24.838-36.2 3.09-1.862 6.206-3.679 9.347-5.452-0.399-4.975-0.732-9.955-0.996-14.94-0.406-7.55-0.702-15.115-0.763-22.676-0.117-14.788 3.643-25.094 9.585-38.794 5.51-12.703 11.571-21.614 22.68-30.319 11.184-8.764 12.593-6.648 9.075-21.206-4.332-17.928-9.094-35.279-9.857-53.824-1.672-40.653-0.266-72.968 21.272-108.77 13.712-22.791 33.398-36.612 53.39-53.645 18.438-15.707 21.007-39.799 22.732-63.427 1.7-23.266 4.283-54.85 19.737-73.401 8.565-10.281 19.032-15.173 31.873-17.132 12.256-1.869 32.864 3.524 34.375-14.285 0.888-10.478-6.443-23.803-6.628-34.981-0.352-21.21 7.13-41.402 18.811-58.89 33.517-50.18 85.363-67.14 141.87-45.499 9.537 3.652 25.648 17.992 35.777 16.144 9.369-1.709 18.523-16.905 27.134-21.869 18.149-10.46 39.963-19.265 61.015-21.09 8.075-0.701 9.573-0.476 15.733-4.294 5.003-3.103 8.148-6.989 13.728-9.668 12.639-6.068 26.192-6.157 39.921-6.902 9.749-0.529 23.707-3.433 32.293 2.933m-19.843 10.722c-48.536-14.263-76.771 35.754-80.735 75.265-0.918 9.124-1.096 13.778-5.116 21.222-1.508 2.796-5.181 1.808-6.777 5.878-7.829 19.972 16.81 34.127 32.631 33.148 2.962-0.184 27.97-8.825 26.7 3.334-0.469 4.48-16.302 4.998-20.109 5.64-17.217 2.904-38.276 6.613-52.539-6.181-12.161-10.908-15.43-40.848-4.293-54.172 3.164-3.786 10.575-4.917 12.989-8.309 3.444-4.839 2.77-16.103 4.319-21.706 3.464-12.535 7.998-23.545 14.687-34.546-33.575 6.723-69.366 20.525-86.419 52.716-10.078 19.023-6.332 36.679-3.899 56.636 1.268 10.417 5.258 26.705 3.768 36.95-0.996 6.841-8.402 18.71-16.471 10.912-5.782-5.587-1.164-40.574-2.56-49.946-0.838-5.627-0.498-12.102-1.837-17.508-2.946-11.898-5.894-6.93-17.191-6.583-8.696 0.266-33.676-3.776-20.229-11.884 7.044-4.248 20.77 0.783 28.682-2.017 8.616-3.048 4.392-0.661 8.651-6.93 1.892-2.783 6.108-12.301 6.988-15.649-8.121-2.428-12.694-7.96-20.297-11.798-8.429-4.256-18.338-8.238-27.403-11.11-20.588-6.523-44.1-7.17-64.303 1.837-23.873 10.645-45.46 40.316-56.194 63.516-11.625 25.123-3.484 47.202 5.176 72.134 6.226-4.726 85.266-47.176 84.112-25.334-0.393 7.438-21.389 8.65-25.732 10.269-5.017 1.869-10.916 5.395-15.798 7.886-10.843 5.533-10.495 5.606-13.559 16.39-4.871 17.137-6.312 33.735-28.848 19.514-7.061 17.642-8.102 31.355-9.806 49.434-0.505 5.355-0.218 15.438-9.055 12.294-7.45-2.651-3.815-20.895-3.812-27.205 5e-3 -7.821 0.386-14.413 1.975-21.813 0.982-4.574 8.839-22.489 7.619-24.029-2.767-3.492-21.392 1.307-25.66 2.176-33.304 6.781-47.585 29.527-50.814 63.192-1.021 10.641-0.084 21.452-0.579 32.124-0.639 13.778-3.556 17.824 6.065 24.766 6.939 5.005 7.117 0.779 10.689 8.853 1.43 3.233 7.33 17.132 7.321 19.071-0.081 17.52-23.09-4e-3 -32.151-2.946-15.624-5.071-30.213 16.436-42.585 26.996-25.065 21.393-40.906 48.751-45.618 81.998-4.351 30.688-1.895 63.536 8.759 92.771 5.973 16.391 11.672 31.931 24.065 44.525 3.121 3.171 15.54 10.477 5.334 15.422-5.297 2.566-14.038-4.628-18.004-8.073-3.86-3.352-9.142-14.214-13.903-14.829-4.551-0.588-17 12.607-19.356 15.359-10.67 12.469-16.638 31.721-17.784 48.077-1.783 25.432 7.746 57.956 31.915 70.311 4.753-18.546 9.799-37.049 19.371-53.777 5.706-9.974 19.245-32.051 32.083-34.05 28.552-4.446-2.04 18.575-6.885 24.208-11.734 13.643-19.362 31.422-24.609 48.473-8.813 28.644-3.904 61.324 15.524 85.073 6.891 8.426 27.074 17.421 29.694 27.48 3.534 13.567-15.78 9.266-23.638 3.655-9.863-7.043-16.987-19.809-23.673-29.6-4.6-6.736-8.393-11.354-11.623-19.306-2.678-6.592-3.899-26.734-6.981-30.874-1.307-1.755-11.597-4.714-14.38-6.953-5.307-4.267-9.627-10.066-13.814-15.386-7.622-9.685-7.156-15.201-18.09-6.975-19.785 14.887-38.488 58.134-34.608 82.844 3.072 19.57 22.434 36.217 39.058 45.405 13.263 7.332 30.729 16.769 45.795 18.005 10.195 0.836 31.413-8.663 39.9-0.078 4.528 4.581 2.813 15.376 5.358 21.573 3.191 7.768 9.187 14.961 13.823 21.89 8.533 12.756 16.026 26.106 28.084 35.949 20.334 16.598 44.668 13.58 66.037 25.129 25.06 13.544-12.697 12.758-21.937 11.629-59.753-7.307-72.18-63.309-111.74-97.489-10.033-8.668-16.412-4.646-29.356-6.16-13.027-1.523-26.182-11.408-39.212-11.941-8.885-0.363-7.834 1.615-14.147 11.041-3.668 5.475-7.811 10.962-10.693 16.929-4.782 9.901-8.347 22.587-10.798 33.431-10.35 45.81 16.881 101.5 61.489 119.08 13.344 5.26 16.294 4.7 14.997 19.606-1.329 15.28-7.39 25.504-3.353 41.46 4.402 17.406 17.628 32.445 34.831 37.895 14.527 4.602 30.41-0.024 44.567 5.085 0.404 22.569-70.648 4.502-79.17-0.983-22.709 54.008-5.59 99.43 26.27 145.72 31.058 45.128 83.923 57.375 135.9 47.694 23.92-4.456 46.441-20.615 63.247-37.674 4.867-4.94 31.861-31.886 25.976-7.288-1.963 8.205-15.162 18.876-20.815 24.006-9.432 8.559-26.378 17.902-33.753 27.64-8.731 11.529 1.594 29.296 11.558 38.291 11.91 10.75 25.129 12.446 40.41 12.611 5.764 0.062 30.108-2.715 32.993 5.515 7.443 21.233-58.175 12.866-67.67 9.153-27.676-10.821-36.493-33.007-34.537-60.816-22.221 5.564-38.636 6.467-61.513 6.336 7.481 25.175 9.026 47.893 22 71.295 11.891 21.446 24.889 34.531 47.687 43.906 57.007 23.44 135.6 14.639 182.07-28.512-18.431-2.96-29.959-14.742-39.599-29.499-10.482-16.045-7.515-36.487-17.2-52.172 0.164-8.215-2.919-10.105-9.251-5.669-3.484 0.61-6.983 0.789-10.494 0.539-6.722 0.481-16.71 1.318-22.926-1.618-4.601-2.173-17.408-15.135-12.142-19.297 2.533-2.003 17.928 3.002 21.617 2.975 5.701-0.041 11.674-1.357 17.218-2.547 10.378-2.227 19.639-5.365 28.458-11.295 6.106-4.107 16.933-17.973 24.82-18.037 15.207-0.126 6.121 14.956 2.116 21.599-12.731 21.115-23.165 39.867-14.52 65.477 2.281 6.762 7.577 13.984 12.796 18.708 5.103 4.62 26.581 20.186 31.977 19.458 2.163-0.293 13.571-11.622 14.767-13.427 4.81-7.252 4.529-9.394 1.808-18.813-4.267-14.764-10.948-32.164 0.136-46.175 12.173 8.313 10.727 33.796 14.386 46.928 2.742 9.843 7.538 18.911 14.352 26.553 12.383 13.891 29.233 20.181 45.643 27.767 13.86 6.407 21.618 16.536 0.228 15.906-22.68-0.667-49.878-18.155-62.184-36.745-11.652 11.805-29.179 18.253-42.343 28.805-11.946 9.576-22.936 14.674-35.754 22.104 35.901 20.776 54.874 58.035 94.657 72.849 32.286 12.023 65.221 20.343 99.015 8.385 11.829-4.185 21.911-10.003 28.496-20.907 4.153-6.874 5.316-15.178 10.585-21.451 7.646 6.664 7.848 17.977 7.418 27.261 23.908-17.547 43.492-31.841 47.45-63.222 3.293-26.109-7.788-50.507-9.193-76.36-18.298 11.997-33.314 24.535-54.082 31.249-18.267 5.904-17.196-5.507-3.95-14.138 15.797-10.294 32.393-16.226 46.751-29.251 15.468-14.032 20.8-17.462 22.895-39.158-40.049 14.135-70.442 19.503-114.07 13.018-38.669-5.749-74.17-42.124-76.46-81.475-26.173 5.525-43.971 6.176-59.27-18.588-13.703-22.181-11.713-44.141-10.771-68.802-33.8 23.085-58.332 31.547-98.841 30.531-32.485-0.814-67.981-3.36-97.952-16.489-29.942-13.116-45.786-41.631-59.002-70.354-17.212-37.408-37.733-79.231-20.83-120.53-29.721-1.046-61.571-23.821-73.932-50.954-2.8-6.147-3.063-19.559-6.526-24.054-4.31-5.595-15.258-3.64-23.989-4.189-10.806-0.68-24.473-1.526-28.539-13.518-1.498-4.42-0.813-17.181 4.293-20.046 7.495-4.208 25.402 13.692 38.674 8.924 16.096-5.782 14.534-23.894 27.363-31.719 15.904-9.7 14.272 13.048 11.808 23.918-3.598 15.877-18.171 22.799-13.563 38.833 2.8 9.745 7.178 19.039 13.525 26.988 11.383 14.257 27.658 22.048 44.568 27.748 6.42 2.165 24.078 4.237 25.609 12.652 0.378 2.073-7.084 16.983-7.778 21.502-1.829 11.9-2.239 23.192-0.094 35.06 5.971 33.04 22.509 72.391 42.546 99.423 13.287 17.927 34.742 26.768 55.582 32.861 45.507 13.305 93.278 15.945 136.34-5.275 19.47-9.595 31.138-21.853 46.528-36.512 4.796-4.57 14.966-15.843 17.944-2.908 1.601 6.958-12.127 20.782-14.484 27.381-6.664 18.66-8.983 52.308 6 68.122 13.513 14.262 35.197 7.029 52.073 11.106 16.286 3.933 9.885 19.842 14.717 33.901 4.704 13.684 14.579 27.198 26.241 35.802 22.641 16.705 57.843 20.194 84.945 17.728 25.87-2.354 61.463-20.406 66.965-48.652 3.907-20.057-3.247-34.225-17.104-46.993-1.402 5.927-6.768 21.714-13.084 24.602-12.496 5.714-11.057-6.715-8.583-15.137 5.088-17.322 12.517-34.745 19.424-51.526 17.249-41.915 23.976-82.581 17.519-128.05-3.749-26.395-12.45-56.148-23.818-79.767-4.095-8.509-7.128-16.818-12.457-24.667-3.312-4.878-23.508-20.727-23.501-25.17 9e-3 -6.31 13.832-5.708 17.313-4.909 12.106 2.778 13.743 13.923 21.389 22.057 3.922-12.292 9.776-23.877 8.666-36.944-1.205-14.192-10.491-40.044-23.862-47.475-8.218-4.568-4.33-2.873-12.925 0.331-5.977 2.229-11.833 6.342-17.402 9.422-12.712 7.03-25.352 12.31-39.093 16.869-6.837 2.268-13.272 3.569-19.846 6.243-4.932 2.005-12.328 8.854-18.041 8.297-12.91-1.258-5.419-9.01 1.598-14.041 9.066-6.501 18.487-9.958 29.118-13.964 54.913-20.692 101.79-51.723 101.83-115.5 0.028-45.193 5.559-101.17-11.188-143.93-7.849-20.037-15.985-40.581-25.431-59.903-7.605-15.556-28.093-36.457-28.969-54.131 8.992-2.571 22.121 10.216 25.368 17.394 45.742-23.532 41.474-89.503 38.24-131.65-1.288-16.78-7.612-29.081-12.554-44.512-2.913-9.098-3.479-21.676-3.24-31.146 0.263-10.408 8.021-22.605 7.045-32.105-2.329-22.668-49.868-38.289-68.216-43.958-18.734-5.789-38.235-7.808-57.644-4.623-26.128 4.288-52.381 22.501-79.449 18.09-0.805-11.871 26.378-15.183 33.797-17.576 14.35-4.628 28.412-8.77 43.496-11.377 16.945-2.93 33.861-4.778 50.7-0.573 14.957 3.737 29.068 9.322 42.694 16.222 22.891 11.593 31.169 0.403 43.455-18.677 19.682-30.567 6.318-50.893-10.89-78.155-10.726-16.991-21.107-30.995-37.883-43.098-9.386-6.772-21.348-10.94-30.205-18.153-6.871-5.596-16.546-22.681-3.019-22.446 6.021 0.105 20.202 14.88 25.306 18.471 12.434 8.745 24.479 17.659 35.852 27.789 13.096-25.481 13.488-59.861 3.351-86.293-11.443-29.831-38.656-36.17-66.067-45.745-2.231-0.654 4.378 1.529 0 0z"/>
  <path d="m483.53 241.29c-10.431 19.86-27.405 25.758-33.964 49.67-5.396 19.666-6.751 42.601 10.743 56.432 8.99 7.107 35.755 20.86 47.369 20.12 6.487-0.413 25.016-24.32 31.104-19.734 9.037 6.807-15.638 31.551-18.13 36.464-4.669 9.209-5.801 24.645-13.57 31.705-19.868 18.057-5.615-29.486-3.281-36.146-19.634-1.389-37.583-0.891-54.244-13.626-7.52-5.749-9.53-11.994-17.308-13.887-7.37-1.792-17.988 2.058-26.067 1.152-12.204-1.37-23.963-4.032-27.406-17.307-3.844-14.823 2.966-9.94 14.001-6.719 12.115 3.536 24.379 4.365 36.987 5.432-2.764-14.78-2.62-36.674 1.475-51.236 4.42-15.721 32.991-49.493 52.291-42.32-2.275 4.331-2.878-1.071 0 0z"/>
  <path d="m644.38 349.87c-1.883 8.318-8.06 14.267-11.154 21.977-2.651 6.599-2.708 14.249-5.894 20.589 8.084-0.341 32.943-4.771 39.366 3.814 9.743 13.022-18.223 7.891-23.848 7.599-26.44-1.375-61.159 2.048-82.541 18.764-23.949 18.722-37.357 48.45-50.528 74.864-9.867 19.788-23.691 31.535-38.203 47.282-12.17 13.205-14.416 28.25-15.195 45.136-0.63 13.649 4.932 26.985 12.371 38.276 7.76 11.78 15.169 17.09 7.327 30.959-8.954 15.832-17.533 24.936-8.836 44.532 4.266 9.612 10.07 16.225 19.257 21.415 11.061 6.25 24.574 10.084 37.095 11.205 4.864 0.435 14.24 2.054 18.826 0.125 5.954-2.506 8.183-9.799 12.138-15.377 5.629-7.939 13.556-15.789 23.09-18.879 3.625-1.175 8.528-4.257 12.314-1.325 7.383 5.717-4.139 13.725-8.948 18.108-10.552 9.618-18.169 17.641-22.103 31.978-3.717 13.541-0.028 26.465-1.069 40.253 26.906-0.738 43.821 9.286 54.131 35.462 32.23-11.451 87.488-25.227 101.14 21.625 8.355 28.663-12.577 15.326-22.791 2.197-12.371-15.902-24.415-26.926-47.323-19.945-9.764 2.976-23.092 18.154-32.721 17.727-8.483-0.376-14.385-12.398-18.603-18.597-16.899-24.829-35.734-30.608-63.677-17.026-25.533 12.41-45.896 43.124-50.431 70.878-2.855 17.471 0.978 41.409 6.795 58.035 1.552 4.436 16.406 24.822 13.667 29.283-5.111 8.328-20.312-0.648-23.579-5.525-3.224-4.812-3.29-11.503-4.658-16.967-1.537-6.139-3.361-11.662-4.4-18.024-1.084-6.64 1.553-24.099-2.252-28.451-5.224-5.975-35.11-8.029-43.913-7.436-16.372 1.104-35.614 7.839-49.643 16.101-8.836 5.205-18.357 18.959-28.346 11.813-6.574-4.702-9.01-18.93-12.24-25.831-5.971-12.76-13.621-23.169-26.582-29.449-15.309-7.419-32.463-4.697-47.688-12.039 8.483-11.905 39.03-4.308 50.027-0.971 23.864 7.244 40.555 25.494 46.237 49.995 23.588-10.042 50.535-22.179 76.8-22.423 12.399-0.115 23.14 4.288 35.012 7.003 1.132-45.947 37.85-87.362 83.167-95.364-4.194-14.666-3.007-27.896-3.367-43.436-32.594 5.447-72.917-3.28-91.093-33.569-14.449-24.078-9.811-55.48 12.914-72.035-16.811-16.625-37.768-55.021-20.835-77.668-23.691-0.987-131.85-4.61-93.553-53.493 15.766 11.454 22.052 23.849 42.581 30.588 31.621 10.381 52.345 3.994 77.296-18.243 30.395-27.089 40.226-70.488 67.409-100.25 20.869-22.852 49.692-32.359 80.109-32.359-17.796-1.853-3.994-22.326 2.206-31.408 1.786-2.619 25.785-28.021 24.735-11.49-2.112 9.33 0.273-4.297 0 0z"/>
  <path d="m343.99 350.88c15.62 4.948 7.148 27.726 4.241 37.569-3.175 10.758-5.342 23.524-4.251 34.823 1.444 14.941 15.696 29.869 15.705 44.138 9e-3 13.71-20.795 16.908-31.416 24.636-48.506 35.295-82.283 103.95-83.018 162.94-0.783 62.952 42.089 119.55 98.584 143.4 4.959 2.094 24.682 9.21 17.054 16.958-6.301 6.4-27.322-3.367-33.1-6.018-17.184-7.886-32.716-20.147-45.539-33.926-4.302-4.622-11.779-18.668-17.535-20.393-5.238-1.571-23.319 9.693-27.79 12.878-8.363 5.957-24.428 43.17-35.632 38.695-9.938-3.969 4.742-32.072 9.15-37.123 10.485-12.016 29.391-23.63 45.382-25.681-22.925-25.703-26.988-76.049-23.383-108.2 0.522-4.663 3.945-13.099 2.457-17.804-1.634-5.171-14.968-13.455-19.304-17.537-3.222-3.034-6.253-6.836-9.876-9.387-5.591-3.936-13.431-6.669-19.945-8.185-7.101-1.652-30.699 0.998-31.4-11.138 36.263-11.007 62.188 2.8 84.687 30.455 3.98-15.747 10.382-32.773 18.286-46.919 5.727-10.249 19.71-19.828 23.162-30.788 2.873-9.123 1.911-5.193-5.395-14.036-4.109-4.972-6.884-10.643-9.978-16.259-3.099-5.627-7.492-11.197-9.218-17.48-3.471-12.644 1.958-12.255-12.717-13.459-15.358-1.259-25.949-1.276-39.566 7.221-6.162 3.845-23.377 18.836-26.214 0.194-1.927-12.67 26.572-16.973 35.253-19.261 14.414-3.797 26.292-4.506 41.251-4.077 1.055-14.355-2.073-34.688 5.812-47.66 8.092-13.314 25.879-30.208 41.764-30.283 0.374 9.174-9.451 13.566-14.959 19.589-6.934 7.583-10.097 15.592-12.599 25.595-9.578 38.296 0.58 60.436 19.767 92.14 10.139-12.509 22.378-23.505 31.731-36.609 4.889-6.848 8.008-12.249 7.96-19.598-0.036-5.518-3.087-12.087-3.548-17.877-1.848-23.191 0.807-61.354 14.137-81.536 4.035 1.278-6.144 9.302 0 0z"/>
  <path d="m637.37 476.64c21.262 2.65-8.119 16.023-11.974 18.924-5.975 4.5-10.762 12.2-15.857 18.001-2.428 2.764-12.743 11.899-13.083 15.547-0.51 5.465 13.055 20.189 15.483 25.531 13.656 30.052 11.172 64.408-4.961 91.405 18.854 0.709 35.051-0.641 52.61 8.585 6.913 3.632 47.418 34.18 26.142 36.88-7.567 0.96-19.429-13.751-25.264-17.913-8.906-6.352-19.021-12.909-29.84-15.353-9.24-2.087-62.86 7.347-64.844 1.973 5.287-11.591 13.882-5.873 22.192-10.88 7.6-4.579 3.967-2.235 6.727-11.526 1.226-4.127 2.134-8.437 3.393-12.597 5.917-19.547 6.746-34.413 1.571-54.438-2.355-9.111-5.52-18.505-11.142-26.198-8.392-11.485-14.844-6.714-27.829-7.858-14.025-1.235-26.289-8.558-20.325-26.532 10.252 0.633 17.999 4.842 28.516 2.921 9.544-1.745 18.696-7.529 26.666-12.823 11.062-7.348 26.811-25.223 41.819-23.649 6.597 0.821-3.559-0.374 0 0z"/>
  <path d="m556.85 983.27c-2.76 14.047-10.098 23.464-7.346 38.256 1.208 6.499 3.597 15.153 8.239 20.145 7.155 7.695 10.224 5.253 19.736 4.103 12.617-1.526 24.965-3.756 35.85 4.452 7.759 5.851 9.221 11.712 19.324 15.282 4.213 1.489 55.285 11.106 28.326 18.535-13.907 3.832-40.71-8.998-52.745-14.506-9.256-4.236-13.509-7.618-23.247-6.071-4.713 0.748-8.681 3.429-13.001 5.151-1.878 0.748-3.375 2.335-5.342 2.987-10.784 3.573-22.946 2.365-34.101 1.883-29.794-1.285-55.221-1.968-80.288-18.859-15.099-10.174-33.457-18.693-26.485-41.167 9.992 1.249 15.902 11.658 22.479 18.046 8.97 8.713 17.973 13.675 29.775 17.551 18.845 6.19 45.007 13.565 64.946 8.739-13.14-14.705-14.037-29.99-12.783-49.646 0.506-7.934 1.345-14.001 5.306-20.927 2.873-5.023 25.387-19.219 21.357-3.954-0.921 4.68 0.9-3.412 0 0z"/>
  <path d="m340.42 1007.2c-0.208 29.846-25.275 61.288-16.937 91.382 10.263 37.036 59.533 36.935 87.087 20.641 7.872-4.655 5.927-7.533 14.096-3.542 5.278 2.579 10.146 9.761 14.814 13.453 20.648 16.335 46.335 23.712 72.071 27.26 31.891 4.397 58.529 0.314 88.441-12.063 11.979-4.958 22.125-11.255 31.936-19.678 5.152-4.421 16.804-20.358 24.416-17.412 26.468 10.245-45.874 46.363-47.296 48.219-3.226 4.21-4.23 24.88-2.66 31.842 3.071 13.616 14.76 17.299 25.672 24.101 7.429 4.631 24.247 11.643 12.629 19.335-8.684 5.75-33.562-0.769-40.641-6.936-17.436-15.192-13.735-38.985-11.351-59.153-52.977 14.554-118.67 11.501-166.85-18.896-2.514-2.149-5.066-4.252-7.654-6.31-2.602-3.479-5.19-2.759-7.763 2.159-2.141 0.487-5.519 2.763-7.598 3.72-10.279 4.739-20.582 5.169-31.68 4.827-21.253-0.655-42.377-6.291-56.002-23.586-13.684-17.37-8.659-42.318-3.56-62.668 5.276-21.061 5.895-48.905 24.582-63.449 1.417 2.252 2.833 4.503 4.25 6.754-0.054 7.838-0.873-2.548 0 0z"/>
 </g>
</svg>
